 http://www.imdb.com/title/tt1194173/

Source: The Bourne Legacy 2012 720p BluRay x264-SPARKS Thanks!

Subs: Arabic, Brazilian, Bulgarian, Dutch, English, French, Greek, Indonesian, Portuguese, Romanian, Spanish and Turkish.

Sample and Screens included.

General
Complete name                            : The Bourne Legacy-720p MP4 AAC x264 BRRip 2012-CC.mp4
Format                                   : MPEG-4
Format profile                           : Base Media
Codec ID                                 : isom
File size                                : 3.12 GiB
Duration                                 : 2h 15mn
Overall bit rate mode                    : Variable
Overall bit rate                         : 3 312 Kbps
Encoded date                             : UTC 2012-11-29 06:21:12

Video
ID                                       : 1
Format                                   : AVC
Format/Info                              : Advanced Video Codec
Format profile                           : High@L4.1
Format settings, CABAC                   : Yes
Format settings, ReFrames                : 5 frames
Codec ID                                 : avc1
Codec ID/Info                            : Advanced Video Coding
Duration                                 : 2h 15mn
Bit rate                                 : 3 008 Kbps
Maximum bit rate                         : 12.0 Mbps
Width                                    : 1 280 pixels
Height                                   : 536 pixels
Display aspect ratio                     : 2.40:1
Frame rate mode                          : Variable
Frame rate                               : 23.976 fps
Minimum frame rate                       : 19.048 fps
Maximum frame rate                       : 25.000 fps
Color space                              : YUV
Chroma subsampling                       : 4:2:0
Bit depth                                : 8 bits
Scan type                                : Progressive
Bits/(Pixel*Frame)                       : 0.183
Stream size                              : 2.76 GiB (88%)
Writing library                          : x264 core 112

Audio
ID                                       : 2
Format                                   : AAC
Format/Info                              : Advanced Audio Codec
Format profile                           : LC
Codec ID                                 : 40
Duration                                 : 2h 15mn
Bit rate mode                            : Variable
Bit rate                                 : 384 Kbps
Maximum bit rate                         : 854 Kbps
Channel(s)                               : 6 channels
Channel positions                        : Front: L C R, Side: L R, LFE
Sampling rate                            : 48.0 KHz
Compression mode                         : Lossy
Delay relative to video                  : 83ms
Stream size                              : 370 MiB (12%)
Language                                 : English

Enjoy...

Coming soon: Jay and Silent Bob Strike Back, Donnie Brasco, The Gold Rush and more...